<svg version="1.2" xmlns="http://www.w3.org/2000/svg" viewBox="0 0 118 132" width="118" height="132">
	<style>
		.s0 { fill: #4c00ff } 
	</style>
	<g>
	</g>
	<path class="s0" d="m99.18 91.63c0 4.01-2.69 5.99-3.84 6.66-1.16 0.67-4.22 2.01-7.7 0l-8.72-4.75-11.03 19.19 29.8 17.2c6.02 3.48 11.33 1.16 13.33 0 2.01-1.16 6.67-4.6 6.67-11.54v-105.11c0-6.95-4.66-10.39-6.67-11.55-2-1.15-7.31-3.47-13.33 0l-91.02 52.56c-6.02 3.47-6.67 9.23-6.67 11.54 0 2.32 0.65 8.07 6.67 11.55l48.34 27.91 10.97-19.07c0 0-19.75-11.7-26.34-15.59l0.35 0.21c-3.82-2.2-4.23-5.86-4.23-7.33 0-1.46 0.41-5.12 4.23-7.32 11.72-6.91 35.36-20.39 47.13-27.22 3.63-2.1 6.83-0.7 8.04 0 1.21 0.7 4.02 2.77 4.02 6.97v3.16l-42.19 24.31 27.4 15.86v-15.24l14.79-8.55z"/>
	<g>
	</g>
</svg>